<svg width="136" height="125" viewBox="0 0 136 125" fill="none" xmlns="http://www.w3.org/2000/svg">
<g filter="url(#filter0_d_245_5946)">
<path d="M56.93 1L5 52.93H30.35L56.93 26.35C63.93 19.35 63.93 8 56.93 1Z" fill="url(#paint0_linear_245_5946)"/>
<path d="M56.93 104.85C63.93 97.8503 63.93 86.5003 56.93 79.5003L30.35 52.9203C23.35 45.9203 23.35 34.5703 30.35 27.5703L5 52.9303L56.93 104.86V104.85Z" fill="url(#paint1_linear_245_5946)"/>
<path d="M78.2499 104.86L130.18 52.9304L104.83 52.9304L78.2499 79.5104C71.2499 86.5104 71.2499 97.8604 78.2499 104.86Z" fill="url(#paint2_linear_245_5946)"/>
<path d="M78.2499 1.01004C71.2499 8.01004 71.2499 19.36 78.2499 26.36L104.83 52.94C111.83 59.94 111.83 71.29 104.83 78.29L130.18 52.93L78.2499 1.00004V1.01004Z" fill="url(#paint3_linear_245_5946)"/>
<path d="M80.6598 52.9293L67.7197 39.9893L54.7797 52.9293L67.7197 65.8694L80.6598 52.9293Z" fill="url(#paint4_linear_245_5946)"/>
</g>
<path d="M8.328 121V109.8H13.176C14.1787 109.8 15.0427 109.965 15.768 110.296C16.4933 110.616 17.0533 111.08 17.448 111.688C17.8427 112.296 18.04 113.021 18.04 113.864C18.04 114.696 17.8427 115.416 17.448 116.024C17.0533 116.621 16.4933 117.08 15.768 117.4C15.0427 117.72 14.1787 117.88 13.176 117.88H9.768L10.92 116.744V121H8.328ZM15.448 121L12.648 116.936H15.416L18.248 121H15.448ZM10.92 117.032L9.768 115.816H13.032C13.832 115.816 14.4293 115.645 14.824 115.304C15.2187 114.952 15.416 114.472 15.416 113.864C15.416 113.245 15.2187 112.765 14.824 112.424C14.4293 112.083 13.832 111.912 13.032 111.912H9.768L10.92 110.68V117.032ZM23.5496 121.128C22.835 121.128 22.195 120.989 21.6296 120.712C21.075 120.435 20.643 120.013 20.3336 119.448C20.0243 118.872 19.8696 118.141 19.8696 117.256V112.392H22.3656V116.888C22.3656 117.603 22.515 118.131 22.8136 118.472C23.123 118.803 23.555 118.968 24.1096 118.968C24.4936 118.968 24.835 118.888 25.1336 118.728C25.4323 118.557 25.667 118.301 25.8376 117.96C26.0083 117.608 26.0936 117.171 26.0936 116.648V112.392H28.5896V121H26.2216V118.632L26.6536 119.32C26.3656 119.917 25.939 120.371 25.3736 120.68C24.819 120.979 24.211 121.128 23.5496 121.128ZM33.798 121.128C33.062 121.128 32.3527 121.043 31.67 120.872C30.998 120.691 30.4647 120.467 30.07 120.2L30.902 118.408C31.2967 118.653 31.7607 118.856 32.294 119.016C32.838 119.165 33.3713 119.24 33.894 119.24C34.47 119.24 34.8753 119.171 35.11 119.032C35.3553 118.893 35.478 118.701 35.478 118.456C35.478 118.253 35.382 118.104 35.19 118.008C35.0087 117.901 34.7633 117.821 34.454 117.768C34.1447 117.715 33.8033 117.661 33.43 117.608C33.0673 117.555 32.6993 117.485 32.326 117.4C31.9527 117.304 31.6113 117.165 31.302 116.984C30.9927 116.803 30.742 116.557 30.55 116.248C30.3687 115.939 30.278 115.539 30.278 115.048C30.278 114.504 30.4327 114.024 30.742 113.608C31.062 113.192 31.5207 112.867 32.118 112.632C32.7153 112.387 33.43 112.264 34.262 112.264C34.8487 112.264 35.446 112.328 36.054 112.456C36.662 112.584 37.1687 112.771 37.574 113.016L36.742 114.792C36.326 114.547 35.9047 114.381 35.478 114.296C35.062 114.2 34.6567 114.152 34.262 114.152C33.7073 114.152 33.302 114.227 33.046 114.376C32.79 114.525 32.662 114.717 32.662 114.952C32.662 115.165 32.7527 115.325 32.934 115.432C33.126 115.539 33.3767 115.624 33.686 115.688C33.9953 115.752 34.3313 115.811 34.694 115.864C35.0673 115.907 35.4407 115.976 35.814 116.072C36.1873 116.168 36.5233 116.307 36.822 116.488C37.1313 116.659 37.382 116.899 37.574 117.208C37.766 117.507 37.862 117.901 37.862 118.392C37.862 118.925 37.702 119.4 37.382 119.816C37.062 120.221 36.598 120.541 35.99 120.776C35.3927 121.011 34.662 121.128 33.798 121.128ZM44.634 112.264C45.3167 112.264 45.9247 112.403 46.458 112.68C47.002 112.947 47.4287 113.363 47.738 113.928C48.0473 114.483 48.202 115.197 48.202 116.072V121H45.706V116.456C45.706 115.763 45.5513 115.251 45.242 114.92C44.9433 114.589 44.5167 114.424 43.962 114.424C43.5673 114.424 43.21 114.509 42.89 114.68C42.5807 114.84 42.3353 115.091 42.154 115.432C41.9833 115.773 41.898 116.211 41.898 116.744V121H39.402V109.128H41.898V114.776L41.338 114.056C41.6473 113.48 42.09 113.037 42.666 112.728C43.242 112.419 43.898 112.264 44.634 112.264ZM55.7445 121V119.32L55.5845 118.952V115.944C55.5845 115.411 55.4192 114.995 55.0885 114.696C54.7685 114.397 54.2725 114.248 53.6005 114.248C53.1418 114.248 52.6885 114.323 52.2405 114.472C51.8032 114.611 51.4298 114.803 51.1205 115.048L50.2245 113.304C50.6938 112.973 51.2592 112.717 51.9205 112.536C52.5818 112.355 53.2538 112.264 53.9365 112.264C55.2485 112.264 56.2672 112.573 56.9925 113.192C57.7178 113.811 58.0805 114.776 58.0805 116.088V121H55.7445ZM53.1205 121.128C52.4485 121.128 51.8725 121.016 51.3925 120.792C50.9125 120.557 50.5445 120.243 50.2885 119.848C50.0325 119.453 49.9045 119.011 49.9045 118.52C49.9045 118.008 50.0272 117.56 50.2725 117.176C50.5285 116.792 50.9285 116.493 51.4725 116.28C52.0165 116.056 52.7258 115.944 53.6005 115.944H55.8885V117.4H53.8725C53.2858 117.4 52.8805 117.496 52.6565 117.688C52.4432 117.88 52.3365 118.12 52.3365 118.408C52.3365 118.728 52.4592 118.984 52.7045 119.176C52.9605 119.357 53.3072 119.448 53.7445 119.448C54.1605 119.448 54.5338 119.352 54.8645 119.16C55.1952 118.957 55.4352 118.664 55.5845 118.28L55.9685 119.432C55.7872 119.987 55.4565 120.408 54.9765 120.696C54.4965 120.984 53.8778 121.128 53.1205 121.128ZM65.5715 112.264C66.2542 112.264 66.8622 112.403 67.3955 112.68C67.9395 112.947 68.3662 113.363 68.6755 113.928C68.9848 114.483 69.1395 115.197 69.1395 116.072V121H66.6435V116.456C66.6435 115.763 66.4888 115.251 66.1795 114.92C65.8808 114.589 65.4542 114.424 64.8995 114.424C64.5048 114.424 64.1475 114.509 63.8275 114.68C63.5182 114.84 63.2728 115.091 63.0915 115.432C62.9208 115.773 62.8355 116.211 62.8355 116.744V121H60.3395V112.392H62.7235V114.776L62.2755 114.056C62.5848 113.48 63.0275 113.037 63.6035 112.728C64.1795 112.419 64.8355 112.264 65.5715 112.264ZM79.7893 121.192C78.8933 121.192 78.0346 121.075 77.2133 120.84C76.3919 120.595 75.7306 120.28 75.2293 119.896L76.1093 117.944C76.5893 118.285 77.1546 118.568 77.8053 118.792C78.4666 119.005 79.1333 119.112 79.8053 119.112C80.3173 119.112 80.7279 119.064 81.0373 118.968C81.3573 118.861 81.5919 118.717 81.7413 118.536C81.8906 118.355 81.9653 118.147 81.9653 117.912C81.9653 117.613 81.8479 117.379 81.6133 117.208C81.3786 117.027 81.0693 116.883 80.6853 116.776C80.3013 116.659 79.8746 116.552 79.4053 116.456C78.9466 116.349 78.4826 116.221 78.0133 116.072C77.5546 115.923 77.1333 115.731 76.7493 115.496C76.3653 115.261 76.0506 114.952 75.8053 114.568C75.5706 114.184 75.4533 113.693 75.4533 113.096C75.4533 112.456 75.6239 111.875 75.9653 111.352C76.3173 110.819 76.8399 110.397 77.5333 110.088C78.2373 109.768 79.1173 109.608 80.1733 109.608C80.8773 109.608 81.5706 109.693 82.2533 109.864C82.9359 110.024 83.5386 110.269 84.0613 110.6L83.2613 112.568C82.7386 112.269 82.2159 112.051 81.6933 111.912C81.1706 111.763 80.6586 111.688 80.1573 111.688C79.6559 111.688 79.2453 111.747 78.9253 111.864C78.6053 111.981 78.3759 112.136 78.2373 112.328C78.0986 112.509 78.0293 112.723 78.0293 112.968C78.0293 113.256 78.1466 113.491 78.3813 113.672C78.6159 113.843 78.9253 113.981 79.3093 114.088C79.6933 114.195 80.1146 114.301 80.5733 114.408C81.0426 114.515 81.5066 114.637 81.9653 114.776C82.4346 114.915 82.8613 115.101 83.2453 115.336C83.6293 115.571 83.9386 115.88 84.1733 116.264C84.4186 116.648 84.5413 117.133 84.5413 117.72C84.5413 118.349 84.3653 118.925 84.0133 119.448C83.6613 119.971 83.1333 120.392 82.4293 120.712C81.7359 121.032 80.8559 121.192 79.7893 121.192ZM91.4164 121V119.32L91.2564 118.952V115.944C91.2564 115.411 91.091 114.995 90.7604 114.696C90.4404 114.397 89.9444 114.248 89.2724 114.248C88.8137 114.248 88.3604 114.323 87.9124 114.472C87.475 114.611 87.1017 114.803 86.7924 115.048L85.8964 113.304C86.3657 112.973 86.931 112.717 87.5924 112.536C88.2537 112.355 88.9257 112.264 89.6084 112.264C90.9204 112.264 91.939 112.573 92.6644 113.192C93.3897 113.811 93.7524 114.776 93.7524 116.088V121H91.4164ZM88.7924 121.128C88.1204 121.128 87.5444 121.016 87.0644 120.792C86.5844 120.557 86.2164 120.243 85.9604 119.848C85.7044 119.453 85.5764 119.011 85.5764 118.52C85.5764 118.008 85.699 117.56 85.9444 117.176C86.2004 116.792 86.6004 116.493 87.1444 116.28C87.6884 116.056 88.3977 115.944 89.2724 115.944H91.5604V117.4H89.5444C88.9577 117.4 88.5524 117.496 88.3284 117.688C88.115 117.88 88.0084 118.12 88.0084 118.408C88.0084 118.728 88.131 118.984 88.3764 119.176C88.6324 119.357 88.979 119.448 89.4164 119.448C89.8324 119.448 90.2057 119.352 90.5364 119.16C90.867 118.957 91.107 118.664 91.2564 118.28L91.6404 119.432C91.459 119.987 91.1284 120.408 90.6484 120.696C90.1684 120.984 89.5497 121.128 88.7924 121.128ZM96.0114 121V112.392H98.5074V121H96.0114ZM97.2594 111.192C96.8007 111.192 96.4274 111.059 96.1394 110.792C95.8514 110.525 95.7074 110.195 95.7074 109.8C95.7074 109.405 95.8514 109.075 96.1394 108.808C96.4274 108.541 96.8007 108.408 97.2594 108.408C97.718 108.408 98.0914 108.536 98.3794 108.792C98.6674 109.037 98.8114 109.357 98.8114 109.752C98.8114 110.168 98.6674 110.515 98.3794 110.792C98.102 111.059 97.7287 111.192 97.2594 111.192ZM101.912 124.232C101.464 124.232 101.021 124.163 100.584 124.024C100.147 123.885 99.7892 123.693 99.5119 123.448L100.424 121.672C100.616 121.843 100.835 121.976 101.08 122.072C101.336 122.168 101.587 122.216 101.832 122.216C102.184 122.216 102.461 122.131 102.664 121.96C102.877 121.8 103.069 121.528 103.24 121.144L103.688 120.088L103.88 119.816L106.968 112.392H109.368L105.48 121.528C105.203 122.221 104.883 122.765 104.52 123.16C104.168 123.555 103.773 123.832 103.336 123.992C102.909 124.152 102.435 124.232 101.912 124.232ZM103.384 121.336L99.5439 112.392H102.12L105.096 119.592L103.384 121.336ZM114.424 121.128C113.443 121.128 112.579 120.936 111.832 120.552C111.096 120.168 110.525 119.645 110.12 118.984C109.715 118.312 109.512 117.549 109.512 116.696C109.512 115.832 109.709 115.069 110.104 114.408C110.509 113.736 111.059 113.213 111.752 112.84C112.445 112.456 113.229 112.264 114.104 112.264C114.947 112.264 115.704 112.445 116.376 112.808C117.059 113.16 117.597 113.672 117.992 114.344C118.387 115.005 118.584 115.8 118.584 116.728C118.584 116.824 118.579 116.936 118.568 117.064C118.557 117.181 118.547 117.293 118.536 117.4H111.544V115.944H117.224L116.264 116.376C116.264 115.928 116.173 115.539 115.992 115.208C115.811 114.877 115.56 114.621 115.24 114.44C114.92 114.248 114.547 114.152 114.12 114.152C113.693 114.152 113.315 114.248 112.984 114.44C112.664 114.621 112.413 114.883 112.232 115.224C112.051 115.555 111.96 115.949 111.96 116.408V116.792C111.96 117.261 112.061 117.677 112.264 118.04C112.477 118.392 112.771 118.664 113.144 118.856C113.528 119.037 113.976 119.128 114.488 119.128C114.947 119.128 115.347 119.059 115.688 118.92C116.04 118.781 116.36 118.573 116.648 118.296L117.976 119.736C117.581 120.184 117.085 120.531 116.488 120.776C115.891 121.011 115.203 121.128 114.424 121.128ZM123.942 121.128C123.131 121.128 122.4 120.947 121.75 120.584C121.099 120.211 120.582 119.693 120.198 119.032C119.824 118.371 119.638 117.592 119.638 116.696C119.638 115.789 119.824 115.005 120.198 114.344C120.582 113.683 121.099 113.171 121.75 112.808C122.4 112.445 123.131 112.264 123.942 112.264C124.667 112.264 125.302 112.424 125.846 112.744C126.39 113.064 126.811 113.549 127.11 114.2C127.408 114.851 127.558 115.683 127.558 116.696C127.558 117.699 127.414 118.531 127.126 119.192C126.838 119.843 126.422 120.328 125.878 120.648C125.344 120.968 124.699 121.128 123.942 121.128ZM124.374 119.08C124.779 119.08 125.147 118.984 125.478 118.792C125.808 118.6 126.07 118.328 126.262 117.976C126.464 117.613 126.566 117.187 126.566 116.696C126.566 116.195 126.464 115.768 126.262 115.416C126.07 115.064 125.808 114.792 125.478 114.6C125.147 114.408 124.779 114.312 124.374 114.312C123.958 114.312 123.584 114.408 123.254 114.6C122.923 114.792 122.656 115.064 122.454 115.416C122.262 115.768 122.166 116.195 122.166 116.696C122.166 117.187 122.262 117.613 122.454 117.976C122.656 118.328 122.923 118.6 123.254 118.792C123.584 118.984 123.958 119.08 124.374 119.08ZM126.63 121V119.24L126.678 116.68L126.518 114.136V109.128H129.014V121H126.63Z" fill="#232529"/>
<path d="M7.328 121V109.8H12.176C13.1787 109.8 14.0427 109.965 14.768 110.296C15.4933 110.616 16.0533 111.08 16.448 111.688C16.8427 112.296 17.04 113.021 17.04 113.864C17.04 114.696 16.8427 115.416 16.448 116.024C16.0533 116.621 15.4933 117.08 14.768 117.4C14.0427 117.72 13.1787 117.88 12.176 117.88H8.768L9.92 116.744V121H7.328ZM14.448 121L11.648 116.936H14.416L17.248 121H14.448ZM9.92 117.032L8.768 115.816H12.032C12.832 115.816 13.4293 115.645 13.824 115.304C14.2187 114.952 14.416 114.472 14.416 113.864C14.416 113.245 14.2187 112.765 13.824 112.424C13.4293 112.083 12.832 111.912 12.032 111.912H8.768L9.92 110.68V117.032ZM22.5496 121.128C21.835 121.128 21.195 120.989 20.6296 120.712C20.075 120.435 19.643 120.013 19.3336 119.448C19.0243 118.872 18.8696 118.141 18.8696 117.256V112.392H21.3656V116.888C21.3656 117.603 21.515 118.131 21.8136 118.472C22.123 118.803 22.555 118.968 23.1096 118.968C23.4936 118.968 23.835 118.888 24.1336 118.728C24.4323 118.557 24.667 118.301 24.8376 117.96C25.0083 117.608 25.0936 117.171 25.0936 116.648V112.392H27.5896V121H25.2216V118.632L25.6536 119.32C25.3656 119.917 24.939 120.371 24.3736 120.68C23.819 120.979 23.211 121.128 22.5496 121.128ZM32.798 121.128C32.062 121.128 31.3527 121.043 30.67 120.872C29.998 120.691 29.4647 120.467 29.07 120.2L29.902 118.408C30.2967 118.653 30.7607 118.856 31.294 119.016C31.838 119.165 32.3713 119.24 32.894 119.24C33.47 119.24 33.8753 119.171 34.11 119.032C34.3553 118.893 34.478 118.701 34.478 118.456C34.478 118.253 34.382 118.104 34.19 118.008C34.0087 117.901 33.7633 117.821 33.454 117.768C33.1447 117.715 32.8033 117.661 32.43 117.608C32.0673 117.555 31.6993 117.485 31.326 117.4C30.9527 117.304 30.6113 117.165 30.302 116.984C29.9927 116.803 29.742 116.557 29.55 116.248C29.3687 115.939 29.278 115.539 29.278 115.048C29.278 114.504 29.4327 114.024 29.742 113.608C30.062 113.192 30.5207 112.867 31.118 112.632C31.7153 112.387 32.43 112.264 33.262 112.264C33.8487 112.264 34.446 112.328 35.054 112.456C35.662 112.584 36.1687 112.771 36.574 113.016L35.742 114.792C35.326 114.547 34.9047 114.381 34.478 114.296C34.062 114.2 33.6567 114.152 33.262 114.152C32.7073 114.152 32.302 114.227 32.046 114.376C31.79 114.525 31.662 114.717 31.662 114.952C31.662 115.165 31.7527 115.325 31.934 115.432C32.126 115.539 32.3767 115.624 32.686 115.688C32.9953 115.752 33.3313 115.811 33.694 115.864C34.0673 115.907 34.4407 115.976 34.814 116.072C35.1873 116.168 35.5233 116.307 35.822 116.488C36.1313 116.659 36.382 116.899 36.574 117.208C36.766 117.507 36.862 117.901 36.862 118.392C36.862 118.925 36.702 119.4 36.382 119.816C36.062 120.221 35.598 120.541 34.99 120.776C34.3927 121.011 33.662 121.128 32.798 121.128ZM43.634 112.264C44.3167 112.264 44.9247 112.403 45.458 112.68C46.002 112.947 46.4287 113.363 46.738 113.928C47.0473 114.483 47.202 115.197 47.202 116.072V121H44.706V116.456C44.706 115.763 44.5513 115.251 44.242 114.92C43.9433 114.589 43.5167 114.424 42.962 114.424C42.5673 114.424 42.21 114.509 41.89 114.68C41.5807 114.84 41.3353 115.091 41.154 115.432C40.9833 115.773 40.898 116.211 40.898 116.744V121H38.402V109.128H40.898V114.776L40.338 114.056C40.6473 113.48 41.09 113.037 41.666 112.728C42.242 112.419 42.898 112.264 43.634 112.264ZM54.7445 121V119.32L54.5845 118.952V115.944C54.5845 115.411 54.4192 114.995 54.0885 114.696C53.7685 114.397 53.2725 114.248 52.6005 114.248C52.1418 114.248 51.6885 114.323 51.2405 114.472C50.8032 114.611 50.4298 114.803 50.1205 115.048L49.2245 113.304C49.6938 112.973 50.2592 112.717 50.9205 112.536C51.5818 112.355 52.2538 112.264 52.9365 112.264C54.2485 112.264 55.2672 112.573 55.9925 113.192C56.7178 113.811 57.0805 114.776 57.0805 116.088V121H54.7445ZM52.1205 121.128C51.4485 121.128 50.8725 121.016 50.3925 120.792C49.9125 120.557 49.5445 120.243 49.2885 119.848C49.0325 119.453 48.9045 119.011 48.9045 118.52C48.9045 118.008 49.0272 117.56 49.2725 117.176C49.5285 116.792 49.9285 116.493 50.4725 116.28C51.0165 116.056 51.7258 115.944 52.6005 115.944H54.8885V117.4H52.8725C52.2858 117.4 51.8805 117.496 51.6565 117.688C51.4432 117.88 51.3365 118.12 51.3365 118.408C51.3365 118.728 51.4592 118.984 51.7045 119.176C51.9605 119.357 52.3072 119.448 52.7445 119.448C53.1605 119.448 53.5338 119.352 53.8645 119.16C54.1952 118.957 54.4352 118.664 54.5845 118.28L54.9685 119.432C54.7872 119.987 54.4565 120.408 53.9765 120.696C53.4965 120.984 52.8778 121.128 52.1205 121.128ZM64.5715 112.264C65.2542 112.264 65.8622 112.403 66.3955 112.68C66.9395 112.947 67.3662 113.363 67.6755 113.928C67.9848 114.483 68.1395 115.197 68.1395 116.072V121H65.6435V116.456C65.6435 115.763 65.4888 115.251 65.1795 114.92C64.8808 114.589 64.4542 114.424 63.8995 114.424C63.5048 114.424 63.1475 114.509 62.8275 114.68C62.5182 114.84 62.2728 115.091 62.0915 115.432C61.9208 115.773 61.8355 116.211 61.8355 116.744V121H59.3395V112.392H61.7235V114.776L61.2755 114.056C61.5848 113.48 62.0275 113.037 62.6035 112.728C63.1795 112.419 63.8355 112.264 64.5715 112.264ZM78.7893 121.192C77.8933 121.192 77.0346 121.075 76.2133 120.84C75.3919 120.595 74.7306 120.28 74.2293 119.896L75.1093 117.944C75.5893 118.285 76.1546 118.568 76.8053 118.792C77.4666 119.005 78.1333 119.112 78.8053 119.112C79.3173 119.112 79.7279 119.064 80.0373 118.968C80.3573 118.861 80.5919 118.717 80.7413 118.536C80.8906 118.355 80.9653 118.147 80.9653 117.912C80.9653 117.613 80.8479 117.379 80.6133 117.208C80.3786 117.027 80.0693 116.883 79.6853 116.776C79.3013 116.659 78.8746 116.552 78.4053 116.456C77.9466 116.349 77.4826 116.221 77.0133 116.072C76.5546 115.923 76.1333 115.731 75.7493 115.496C75.3653 115.261 75.0506 114.952 74.8053 114.568C74.5706 114.184 74.4533 113.693 74.4533 113.096C74.4533 112.456 74.6239 111.875 74.9653 111.352C75.3173 110.819 75.8399 110.397 76.5333 110.088C77.2373 109.768 78.1173 109.608 79.1733 109.608C79.8773 109.608 80.5706 109.693 81.2533 109.864C81.9359 110.024 82.5386 110.269 83.0613 110.6L82.2613 112.568C81.7386 112.269 81.2159 112.051 80.6933 111.912C80.1706 111.763 79.6586 111.688 79.1573 111.688C78.6559 111.688 78.2453 111.747 77.9253 111.864C77.6053 111.981 77.3759 112.136 77.2373 112.328C77.0986 112.509 77.0293 112.723 77.0293 112.968C77.0293 113.256 77.1466 113.491 77.3813 113.672C77.6159 113.843 77.9253 113.981 78.3093 114.088C78.6933 114.195 79.1146 114.301 79.5733 114.408C80.0426 114.515 80.5066 114.637 80.9653 114.776C81.4346 114.915 81.8613 115.101 82.2453 115.336C82.6293 115.571 82.9386 115.88 83.1733 116.264C83.4186 116.648 83.5413 117.133 83.5413 117.72C83.5413 118.349 83.3653 118.925 83.0133 119.448C82.6613 119.971 82.1333 120.392 81.4293 120.712C80.7359 121.032 79.8559 121.192 78.7893 121.192ZM90.4164 121V119.32L90.2564 118.952V115.944C90.2564 115.411 90.091 114.995 89.7604 114.696C89.4404 114.397 88.9444 114.248 88.2724 114.248C87.8137 114.248 87.3604 114.323 86.9124 114.472C86.475 114.611 86.1017 114.803 85.7924 115.048L84.8964 113.304C85.3657 112.973 85.931 112.717 86.5924 112.536C87.2537 112.355 87.9257 112.264 88.6084 112.264C89.9204 112.264 90.939 112.573 91.6644 113.192C92.3897 113.811 92.7524 114.776 92.7524 116.088V121H90.4164ZM87.7924 121.128C87.1204 121.128 86.5444 121.016 86.0644 120.792C85.5844 120.557 85.2164 120.243 84.9604 119.848C84.7044 119.453 84.5764 119.011 84.5764 118.52C84.5764 118.008 84.699 117.56 84.9444 117.176C85.2004 116.792 85.6004 116.493 86.1444 116.28C86.6884 116.056 87.3977 115.944 88.2724 115.944H90.5604V117.4H88.5444C87.9577 117.4 87.5524 117.496 87.3284 117.688C87.115 117.88 87.0084 118.12 87.0084 118.408C87.0084 118.728 87.131 118.984 87.3764 119.176C87.6324 119.357 87.979 119.448 88.4164 119.448C88.8324 119.448 89.2057 119.352 89.5364 119.16C89.867 118.957 90.107 118.664 90.2564 118.28L90.6404 119.432C90.459 119.987 90.1284 120.408 89.6484 120.696C89.1684 120.984 88.5497 121.128 87.7924 121.128ZM95.0114 121V112.392H97.5074V121H95.0114ZM96.2594 111.192C95.8007 111.192 95.4274 111.059 95.1394 110.792C94.8514 110.525 94.7074 110.195 94.7074 109.8C94.7074 109.405 94.8514 109.075 95.1394 108.808C95.4274 108.541 95.8007 108.408 96.2594 108.408C96.718 108.408 97.0914 108.536 97.3794 108.792C97.6674 109.037 97.8114 109.357 97.8114 109.752C97.8114 110.168 97.6674 110.515 97.3794 110.792C97.102 111.059 96.7287 111.192 96.2594 111.192ZM100.912 124.232C100.464 124.232 100.021 124.163 99.5839 124.024C99.1465 123.885 98.7892 123.693 98.5119 123.448L99.4239 121.672C99.6159 121.843 99.8345 121.976 100.08 122.072C100.336 122.168 100.587 122.216 100.832 122.216C101.184 122.216 101.461 122.131 101.664 121.96C101.877 121.8 102.069 121.528 102.24 121.144L102.688 120.088L102.88 119.816L105.968 112.392H108.368L104.48 121.528C104.203 122.221 103.883 122.765 103.52 123.16C103.168 123.555 102.773 123.832 102.336 123.992C101.909 124.152 101.435 124.232 100.912 124.232ZM102.384 121.336L98.5439 112.392H101.12L104.096 119.592L102.384 121.336ZM113.424 121.128C112.443 121.128 111.579 120.936 110.832 120.552C110.096 120.168 109.525 119.645 109.12 118.984C108.715 118.312 108.512 117.549 108.512 116.696C108.512 115.832 108.709 115.069 109.104 114.408C109.509 113.736 110.059 113.213 110.752 112.84C111.445 112.456 112.229 112.264 113.104 112.264C113.947 112.264 114.704 112.445 115.376 112.808C116.059 113.16 116.597 113.672 116.992 114.344C117.387 115.005 117.584 115.8 117.584 116.728C117.584 116.824 117.579 116.936 117.568 117.064C117.557 117.181 117.547 117.293 117.536 117.4H110.544V115.944H116.224L115.264 116.376C115.264 115.928 115.173 115.539 114.992 115.208C114.811 114.877 114.56 114.621 114.24 114.44C113.92 114.248 113.547 114.152 113.12 114.152C112.693 114.152 112.315 114.248 111.984 114.44C111.664 114.621 111.413 114.883 111.232 115.224C111.051 115.555 110.96 115.949 110.96 116.408V116.792C110.96 117.261 111.061 117.677 111.264 118.04C111.477 118.392 111.771 118.664 112.144 118.856C112.528 119.037 112.976 119.128 113.488 119.128C113.947 119.128 114.347 119.059 114.688 118.92C115.04 118.781 115.36 118.573 115.648 118.296L116.976 119.736C116.581 120.184 116.085 120.531 115.488 120.776C114.891 121.011 114.203 121.128 113.424 121.128ZM122.942 121.128C122.131 121.128 121.4 120.947 120.75 120.584C120.099 120.211 119.582 119.693 119.198 119.032C118.824 118.371 118.638 117.592 118.638 116.696C118.638 115.789 118.824 115.005 119.198 114.344C119.582 113.683 120.099 113.171 120.75 112.808C121.4 112.445 122.131 112.264 122.942 112.264C123.667 112.264 124.302 112.424 124.846 112.744C125.39 113.064 125.811 113.549 126.11 114.2C126.408 114.851 126.558 115.683 126.558 116.696C126.558 117.699 126.414 118.531 126.126 119.192C125.838 119.843 125.422 120.328 124.878 120.648C124.344 120.968 123.699 121.128 122.942 121.128ZM123.374 119.08C123.779 119.08 124.147 118.984 124.478 118.792C124.808 118.6 125.07 118.328 125.262 117.976C125.464 117.613 125.566 117.187 125.566 116.696C125.566 116.195 125.464 115.768 125.262 115.416C125.07 115.064 124.808 114.792 124.478 114.6C124.147 114.408 123.779 114.312 123.374 114.312C122.958 114.312 122.584 114.408 122.254 114.6C121.923 114.792 121.656 115.064 121.454 115.416C121.262 115.768 121.166 116.195 121.166 116.696C121.166 117.187 121.262 117.613 121.454 117.976C121.656 118.328 121.923 118.6 122.254 118.792C122.584 118.984 122.958 119.08 123.374 119.08ZM125.63 121V119.24L125.678 116.68L125.518 114.136V109.128H128.014V121H125.63Z" fill="white"/>
<defs>
<filter id="filter0_d_245_5946" x="0" y="0" width="135.18" height="113.86" filterUnits="userSpaceOnUse" color-interpolation-filters="sRGB">
<feFlood flood-opacity="0" result="BackgroundImageFix"/>
<feColorMatrix in="SourceAlpha" type="matrix" values="0 0 0 0 0 0 0 0 0 0 0 0 0 0 0 0 0 0 127 0" result="hardAlpha"/>
<feOffset dy="4"/>
<feGaussianBlur stdDeviation="2.5"/>
<feComposite in2="hardAlpha" operator="out"/>
<feColorMatrix type="matrix" values="0 0 0 0 0 0 0 0 0 0 0 0 0 0 0 0 0 0 0.25 0"/>
<feBlend mode="normal" in2="BackgroundImageFix" result="effect1_dropShadow_245_5946"/>
<feBlend mode="normal" in="SourceGraphic" in2="effect1_dropShadow_245_5946" result="shape"/>
</filter>
<linearGradient id="paint0_linear_245_5946" x1="60.85" y1="4.43" x2="26.57" y2="44.88" gradientUnits="userSpaceOnUse">
<stop stop-color="#02FFE2"/>
<stop offset="1" stop-color="#0088D8"/>
</linearGradient>
<linearGradient id="paint1_linear_245_5946" x1="34.84" y1="30.8703" x2="32.79" y2="99.5803" gradientUnits="userSpaceOnUse">
<stop stop-color="#02FFE2"/>
<stop offset="1" stop-color="#0088D8"/>
</linearGradient>
<linearGradient id="paint2_linear_245_5946" x1="74.3299" y1="101.43" x2="108.61" y2="60.9804" gradientUnits="userSpaceOnUse">
<stop stop-color="#02FFE2"/>
<stop offset="1" stop-color="#0088D8"/>
</linearGradient>
<linearGradient id="paint3_linear_245_5946" x1="100.34" y1="74.99" x2="102.39" y2="6.28005" gradientUnits="userSpaceOnUse">
<stop stop-color="#02FFE2"/>
<stop offset="1" stop-color="#0088D8"/>
</linearGradient>
<linearGradient id="paint4_linear_245_5946" x1="67.8394" y1="40.4394" x2="67.5894" y2="65.8394" gradientUnits="userSpaceOnUse">
<stop stop-color="#FDDF00"/>
<stop offset="1" stop-color="#F27900"/>
</linearGradient>
</defs>
</svg>
